<?xml version="1.0" standalone="no"?>
<!DOCTYPE svg PUBLIC "-//W3C//DTD SVG 20010904//EN"
 "http://www.w3.org/TR/2001/REC-SVG-20010904/DTD/svg10.dtd">
<svg version="1.0" xmlns="http://www.w3.org/2000/svg"
 width="267.000000pt" height="267.000000pt" viewBox="0 0 267.000000 267.000000"
 preserveAspectRatio="xMidYMid meet">
<metadata>
Created by potrace 1.14, written by Peter Selinger 2001-2017
</metadata>
<g transform="translate(0.000000,267.000000) scale(0.100000,-0.100000)"
fill="#000000" stroke="none">
<path d="M307 1933 c-13 -13 -7 -35 24 -79 30 -43 31 -49 27 -127 -4 -76 -7
-87 -44 -145 -40 -62 -41 -62 -52 -37 -26 56 -89 3 -68 -57 5 -16 13 -28 18
-28 4 0 8 -5 8 -11 0 -5 -4 -8 -10 -4 -5 3 -17 -2 -27 -12 -18 -18 -75 -25
-88 -11 -11 11 -35 -3 -35 -21 0 -22 49 -50 80 -45 42 6 54 9 67 17 8 5 19 -3
30 -20 29 -43 20 -169 -18 -254 -16 -37 -29 -78 -29 -92 0 -16 -7 -26 -20 -30
-24 -6 -27 -42 -4 -51 9 -3 26 -6 39 -6 25 0 29 8 40 72 4 20 22 61 41 90 19
29 34 66 35 83 0 16 4 39 9 50 7 18 8 19 15 2 4 -9 2 -30 -4 -45 -9 -24 -30
-144 -31 -180 0 -21 61 -52 82 -41 19 10 25 39 8 39 -6 0 -17 15 -26 33 -14
28 -14 36 0 67 l14 35 11 -30 c6 -16 16 -40 22 -51 15 -29 2 -159 -17 -175
-16 -13 -18 -35 -4 -44 5 -3 23 1 39 9 27 14 29 19 30 77 0 34 3 64 6 67 2 3
14 -17 25 -44 12 -27 24 -51 28 -54 4 -3 13 -15 20 -28 13 -24 14 -22 -37 -38
-11 -4 -12 -7 -2 -17 17 -17 293 -13 451 7 68 9 146 16 172 16 36 0 48 4 48
15 0 8 -6 15 -14 15 -8 0 -16 5 -18 10 -2 6 -55 13 -125 17 l-121 6 8 28 c5
16 5 29 0 29 -14 0 -18 36 -5 53 14 20 11 103 -5 123 -7 8 -9 14 -4 14 5 0 -8
15 -29 34 -35 30 -37 34 -18 39 23 6 23 8 23 130 1 83 -10 109 -36 88 -10 -9
-14 -34 -13 -94 1 -85 -5 -107 -27 -107 -15 0 -46 32 -50 52 -2 7 -6 21 -11
31 -4 9 -2 30 3 45 24 59 18 98 -16 116 -28 15 -77 88 -65 100 3 3 1 6 -6 6
-8 0 -10 14 -6 46 3 26 8 50 10 54 3 5 -1 10 -7 12 -9 3 -13 38 -13 127 0 118
-1 122 -23 128 -12 3 -28 1 -35 -5 -9 -8 -47 -75 -74 -130 0 -2 -10 2 -21 9
-16 10 -23 10 -35 0 -21 -17 -30 -60 -17 -77 7 -7 9 -18 5 -24 -13 -22 -25 3
-25 53 0 43 -7 62 -40 115 -38 60 -49 70 -63 55z m307 -58 c-4 -8 -8 -15 -10
-15 -2 0 -4 7 -4 15 0 8 4 15 10 15 5 0 7 -7 4 -15z m-73 -172 c-9 -47 -18
-63 -49 -90 -33 -29 -52 -40 -52 -29 0 2 14 19 31 37 24 25 29 39 25 60 -3 17
0 32 8 38 8 7 20 26 27 44 19 44 23 14 10 -60z m3 -203 c19 -74 17 -92 -9 -70
-9 7 -14 27 -13 49 0 20 -4 46 -10 57 -11 20 -7 34 8 34 3 0 14 -32 24 -70z
m-78 -56 c-4 -9 -9 -15 -11 -12 -3 3 -3 13 1 22 4 9 9 15 11 12 3 -3 3 -13 -1
-22z m-166 -54 c0 -5 -2 -10 -4 -10 -3 0 -8 5 -11 10 -3 6 -1 10 4 10 6 0 11
-4 11 -10z m354 -25 c4 -14 4 -36 0 -49 -4 -19 -12 -23 -37 -22 -41 2 -45 24
-12 65 32 38 41 39 49 6z m-108 -129 c17 -58 17 -59 5 -52 -5 3 -14 -1 -21 -9
-22 -27 -29 -16 -23 39 3 29 1 62 -5 72 -8 14 -6 21 6 30 14 11 17 9 20 -9 2
-12 10 -44 18 -71z m244 -98 c0 -5 -4 -7 -9 -3 -5 3 -12 1 -15 -3 -7 -12 -56
-9 -57 3 0 12 40 23 64 17 9 -2 17 -9 17 -14z m46 -113 c-11 -8 -28 -15 -38
-15 -10 0 -18 -7 -18 -15 0 -8 5 -15 10 -15 6 0 10 -9 10 -20 0 -36 -36 -24
-52 18 l-14 37 51 11 c69 15 73 15 51 -1z"/>
<path d="M1249 1868 c-1 -2 -2 -49 -3 -105 l-2 -103 33 -1 c107 -3 156 0 173
11 11 6 15 30 15 87 2 105 -7 113 -127 113 -48 0 -89 -1 -89 -2z m153 -75 c17
-19 16 -49 -2 -67 -12 -12 -80 -9 -97 6 -11 9 -9 47 4 71 8 15 80 7 95 -10z"/>
<path d="M1575 1860 c3 -5 1 -10 -5 -10 -6 0 -8 -4 -5 -10 3 -5 1 -10 -5 -10
-6 0 -9 -4 -6 -9 3 -5 -1 -14 -9 -21 -8 -7 -13 -16 -10 -20 3 -4 -9 -33 -25
-64 l-30 -56 28 0 c15 0 33 5 40 12 18 18 102 21 121 5 35 -31 74 -26 54 6 -4
6 -8 18 -9 25 -2 8 -10 22 -18 31 -9 10 -14 20 -11 23 3 2 -6 28 -20 56 -23
48 -28 52 -61 52 -21 0 -33 -4 -29 -10z m47 -85 c4 -19 1 -25 -13 -25 -21 0
-25 20 -7 38 16 16 15 16 20 -13z"/>
<path d="M1762 1853 c-4 -10 -8 -56 -7 -103 1 -83 1 -85 25 -85 23 0 25 4 27
45 1 25 2 53 2 63 1 15 5 16 21 7 11 -6 20 -17 20 -25 0 -8 5 -15 12 -15 6 0
9 -3 5 -6 -12 -12 47 -71 77 -76 43 -8 46 -1 46 108 0 95 -2 104 -19 104 -28
0 -37 -19 -36 -82 1 -32 0 -58 -2 -58 -7 0 -29 24 -36 40 -4 8 -16 29 -27 45
-11 17 -23 36 -26 43 -10 19 -72 15 -82 -5z"/>
<path d="M2048 1847 c-29 -32 -29 -151 -1 -173 10 -7 24 -14 31 -14 6 0 12 -4
12 -8 0 -11 105 -5 128 7 21 11 37 55 27 71 -10 16 -42 12 -49 -6 -4 -11 -18
-14 -58 -12 -46 3 -52 6 -59 30 -16 61 40 94 108 61 56 -26 85 5 43 47 -16 16
-33 20 -91 20 -61 0 -73 -3 -91 -23z"/>
<path d="M2279 1823 c-1 -74 2 -146 6 -163 5 -14 25 -16 168 -11 12 1 17 9 17
32 0 25 -4 30 -22 29 -59 -5 -118 1 -118 12 0 6 3 8 7 5 3 -4 12 -2 19 4 8 7
14 7 19 -1 4 -6 12 -7 24 -1 9 5 26 9 36 8 15 -2 20 4 20 23 0 24 -3 25 -62
28 -84 4 -80 20 5 24 65 3 67 4 70 31 l3 27 -95 0 -96 0 -1 -47z"/>
<path d="M922 1417 c-5 -6 -9 -54 -8 -106 1 -78 4 -96 19 -105 25 -16 33 2 31
74 -2 66 12 79 36 35 7 -14 17 -25 22 -25 4 0 8 -7 8 -15 0 -8 5 -15 12 -15 6
0 9 -3 5 -6 -3 -3 4 -16 15 -29 21 -24 73 -32 85 -12 3 6 7 52 8 104 1 82 -1
96 -17 104 -29 15 -35 4 -33 -58 3 -105 -6 -107 -69 -13 -25 39 -49 70 -54 71
-4 0 -17 2 -28 5 -12 2 -26 -2 -32 -9z"/>
<path d="M1181 1416 c-21 -27 4 -67 30 -50 22 13 34 -16 33 -81 -1 -54 3 -68
17 -75 35 -20 45 -4 44 75 -1 41 2 75 5 76 3 1 18 2 35 3 32 1 46 29 25 50
-14 14 -178 16 -189 2z"/>
<path d="M1423 1408 c-19 -21 -22 -31 -27 -100 -3 -27 0 -50 5 -54 5 -3 7 -9
4 -14 -11 -18 31 -35 94 -37 124 -4 133 4 136 107 2 51 -15 108 -33 111 -4 1
-42 2 -84 4 -65 2 -80 -1 -95 -17z m135 -57 c19 -11 25 -68 9 -78 -15 -9 -96
-12 -102 -3 -2 4 -7 21 -10 39 -4 26 -2 33 15 39 31 12 70 13 88 3z"/>
<path d="M1681 1361 c-6 -10 -8 -21 -4 -24 3 -4 0 -14 -8 -23 -8 -10 -14 -18
-13 -18 0 -1 6 -10 12 -22 8 -15 20 -20 44 -19 30 1 33 5 32 31 0 18 -5 28
-13 26 -8 -2 -10 4 -6 18 6 20 -9 50 -26 50 -5 0 -13 -8 -18 -19z"/>
<path d="M1789 1373 c-2 -11 -2 -63 0 -95 1 -30 21 -39 22 -10 0 14 2 14 7 2
4 -8 18 -15 32 -15 21 0 25 6 28 40 5 62 10 65 11 8 1 -31 6 -53 12 -53 7 0
10 20 7 55 -1 30 0 55 3 55 13 0 27 -47 18 -61 -5 -8 -9 -23 -9 -33 0 -19 0
-19 22 0 12 10 18 13 14 6 -4 -7 -1 -15 9 -18 24 -10 29 2 15 36 -10 25 -10
36 0 55 16 30 8 42 -13 21 -9 -10 -17 -12 -19 -5 -4 13 -58 20 -58 7 0 -4 -11
-6 -25 -2 -23 6 -25 3 -26 -27 -1 -28 -3 -29 -6 -9 -3 14 -10 31 -15 38 -12
13 -27 16 -29 5z"/>
<path d="M2035 1328 c-8 -29 -15 -58 -15 -65 0 -18 15 -16 31 3 12 14 14 14
25 -1 20 -27 27 1 14 55 -16 69 -36 71 -55 8z"/>
<path d="M2108 1355 c-2 -11 -1 -39 1 -62 3 -41 4 -43 35 -40 17 1 34 7 38 12
5 6 8 6 8 -1 0 -6 10 -9 24 -7 13 3 33 0 44 -6 10 -6 23 -7 27 -3 3 4 12 7 18
7 7 0 13 19 15 43 4 55 30 59 28 5 -1 -48 18 -60 22 -13 5 61 11 68 33 41 10
-13 19 -34 19 -47 0 -12 4 -25 9 -28 11 -7 21 17 21 49 0 13 5 27 10 30 17 10
12 45 -5 39 -8 -4 -15 -16 -15 -28 -1 -20 -1 -20 -15 4 -12 22 -20 25 -74 25
l-61 0 0 -45 c0 -39 -3 -46 -20 -47 -17 -2 -20 4 -20 42 0 44 -13 66 -24 43
-5 -10 -7 -10 -12 0 -11 24 -24 11 -25 -25 -1 -39 -3 -37 -13 8 -5 22 -11 26
-36 25 -21 0 -30 -6 -32 -21z"/>
<path d="M1334 998 c-15 -4 -32 -15 -38 -25 -13 -23 -16 -73 -4 -73 5 0 7 -4
4 -9 -9 -13 22 -24 89 -30 35 -4 58 -10 55 -16 -5 -11 -77 -11 -127 0 -28 6
-32 5 -30 -14 1 -12 5 -21 9 -21 4 0 7 -5 6 -12 -4 -16 75 -30 136 -24 26 3
49 6 51 8 23 27 28 99 8 119 -5 5 -36 12 -69 15 -72 6 -87 11 -79 24 8 13 92
13 100 0 3 -5 16 -10 29 -10 17 0 22 6 21 24 0 13 -4 28 -8 32 -12 12 -121 21
-153 12z"/>
<path d="M1618 1002 c-38 -2 -68 -6 -69 -10 -1 -4 -2 -53 -3 -109 l-1 -103 27
0 c22 0 26 4 23 25 -2 24 0 25 59 25 74 1 96 15 100 66 8 82 -29 111 -136 106z
m78 -84 c1 -10 2 -18 1 -19 -1 0 -21 -2 -43 -5 -33 -4 -43 -2 -48 11 -10 27 3
36 47 33 29 -2 41 -8 43 -20z"/>
<path d="M1844 979 c-9 -10 -14 -19 -10 -19 3 0 0 -10 -9 -23 -8 -13 -12 -27
-8 -30 3 -4 1 -7 -5 -7 -7 0 -11 -3 -10 -7 1 -5 -8 -30 -20 -57 -12 -27 -22
-50 -22 -52 0 -12 59 -2 64 11 4 11 21 15 62 15 44 0 59 -4 72 -21 16 -19 52
-19 52 0 0 4 -20 51 -44 106 -40 92 -45 99 -74 101 -20 1 -37 -4 -48 -17z m58
-84 c4 -19 1 -25 -13 -25 -20 0 -23 8 -13 34 9 24 21 19 26 -9z"/>
<path d="M2068 985 c-31 -17 -30 -15 -30 -104 1 -89 22 -111 108 -111 34 0 70
3 79 6 19 8 44 54 38 72 -7 17 -50 15 -61 -4 -6 -11 -21 -14 -58 -12 l-49 3 0
50 0 50 49 3 c30 2 54 -2 65 -11 37 -31 68 6 38 47 -18 25 -140 33 -179 11z"/>
<path d="M2303 987 c-10 -17 -7 -197 4 -208 5 -5 47 -9 94 -7 83 3 84 3 87 31
l3 27 -70 0 c-56 0 -71 3 -71 15 0 12 14 15 65 15 63 0 65 1 65 25 0 24 -2 25
-65 25 -50 0 -65 3 -65 15 0 11 16 15 68 17 63 3 67 4 67 26 0 23 -3 24 -88
26 -52 2 -90 -1 -94 -7z"/>
</g>
</svg>
